<svg xmlns="http://www.w3.org/2000/svg" width="64" height="64" shape-rendering="geometricPrecision" text-rendering="geometricPrecision" image-rendering="optimizeQuality" fill-rule="evenodd" clip-rule="evenodd" viewBox="0 0 640 640"><path d="M156.049 609.952c30.957 0 56.08-22.488 56.08-50.221 0-9.91-3.249-19.122-8.8-26.918h1.512c-24.65-26.941-22.028-48.957 4.075-56.658h86.304c9.732 0 17.705-7.973 17.705-17.705v-76.643c6.047-52.3 28.382-36.756 54.662-20.575 63.52 39.119 105.757-53.563 54.45-85.276-40.312-24.922-57.78 17.917-87.285 13.512-11.398-1.713-19.335-14.044-21.827-32.835v-75.698c0-9.733-7.973-17.705-17.705-17.705h-75.544c-35.8-4.512-42.532-28.607-14.835-58.879h-1.512c5.551-7.795 8.8-17.008 8.8-26.93 0-27.72-25.123-50.209-56.08-50.209-30.945 0-56.067 22.489-56.067 50.21 0 9.921 3.248 19.134 8.787 26.93h-.39c27.697 30.271 20.977 54.366-14.835 58.878H17.705C7.973 163.23 0 171.203 0 180.935v78.958c5.693 32.504 29.115 37.795 58.3 11.09v.39c7.795-5.551 17.008-8.787 26.93-8.787 27.72.023 50.22 25.11 50.209 56.067.012 30.945-22.489 56.056-50.21 56.056-9.92.024-19.134-3.236-26.929-8.788v1.512C29.115 340.728 5.693 346.08 0 378.583v79.867c0 9.732 7.973 17.705 17.705 17.705h86.6c26.102 7.7 28.724 29.717 4.074 56.658h.39c-5.54 7.796-8.787 17.008-8.787 26.918 0 27.732 25.122 50.221 56.067 50.221zm327.902 2.835h-.118c-30.957 0-56.068-22.489-56.068-50.21 0-9.921 3.237-19.134 8.788-26.93h-.39c24.638-26.94 22.028-48.945-4.075-56.657h-86.6c-9.732 0-17.704-7.973-17.704-17.705v-79.856c4.17-12.094 9.46-16.37 15.72-16.488 2.847-.047 5.882.744 9.095 2.079 9.083 3.732 19.666 11.622 31.252 16.087 44.588 17.185 82.856-26.198 80.305-70.773-.567-9.957-4.595-19.76-10.512-28.784-22.737-34.784-56.47-38.09-88.974-18.236-16.583 10.134-29.74 17.8-37.288-6.071l.402-75.473c.047-9.733 7.972-17.705 17.705-17.705h75.84c35.799-4.512 42.531-28.607 14.834-58.879h.39c-5.551-7.795-8.788-17.008-8.788-26.93 0-27.72 25.11-50.209 56.068-50.209h.118c30.957 0 56.068 22.489 56.068 50.21 0 9.92-3.237 19.134-8.788 26.929h.39c-27.697 30.272-20.965 54.367 14.835 58.879h75.84c9.732 0 17.704 7.972 17.704 17.705v78.957c-5.693 32.516-29.103 37.796-58.3 11.091v.39c-7.795-5.551-17.008-8.788-26.93-8.788-27.72.024-50.22 25.11-50.209 56.056-.011 30.957 22.489 56.068 50.21 56.068 9.921.023 19.134-3.237 26.93-8.788v1.512c29.196-26.705 52.606-21.355 58.3 11.162v79.855c0 9.732-7.973 17.705-17.706 17.705h-86.6c-26.102 7.712-28.712 29.717-4.074 56.658h-.39c5.551 7.795 8.788 17.008 8.788 26.93 0 27.72-25.11 50.209-56.068 50.209z"/></svg>